<svg width="256" height="256" viewBox="0 0 256 256" fill="none" xmlns="http://www.w3.org/2000/svg">
<path d="M112.742 103.372C122.665 103.273 132.59 103.303 142.513 103.462C147.518 117.908 153.582 133.059 159.042 147.45L185.402 216.468C177.069 216.563 168.583 216.472 160.237 216.458C158.459 210.148 153.169 197.486 150.689 190.981L131.756 141.201C130.291 137.539 128.855 133.869 127.448 130.189C125.818 136.649 120.024 151.149 117.522 158.08C110.571 177.613 103.453 197.095 96.1672 216.523C87.3009 216.536 78.4346 216.491 69.5684 216.39C73.3523 207.835 76.9704 197.21 80.3227 188.341C87.8637 167.941 95.573 147.595 103.449 127.304C105.966 120.878 109.471 108.885 112.742 103.372Z" fill="#8E8E8E"/>
<path d="M76.7127 39.2365C91.7197 37.2604 105.465 47.8857 107.334 62.9073C109.202 77.9288 98.4782 91.598 83.4442 93.3579C68.5612 95.1005 55.0615 84.5089 53.2113 69.6384C51.3621 54.7691 61.8566 41.1927 76.7127 39.2365Z" fill="#09AEDD"/>
<path d="M172.924 39.1466C187.832 37.6058 201.188 48.3829 202.833 63.2783C204.478 78.1743 193.795 91.6064 178.912 93.3565C163.88 95.1227 150.285 84.3102 148.622 69.2663C146.961 54.2219 157.869 40.7028 172.924 39.1466Z" fill="#E48AB1"/>
</svg>
