<svg width="250" height="100" viewBox="0 0 250 100" fill="none" xmlns="http://www.w3.org/2000/svg">
<path d="M70.917 32.6439C72.6637 32.5449 74.8761 32.6084 76.6588 32.6179C77.565 33.7184 79.1195 36.2515 79.9483 37.5348C81.4743 39.8964 83.1775 42.3747 84.6151 44.7652C87.1487 41.1745 90.2192 36.3315 92.5113 32.6205C94.02 32.5475 96.7361 32.5912 98.2361 32.6461C98.4954 41.0974 98.0678 50.0212 98.2821 58.5468L92.7603 58.5313L92.7677 47.4888C92.7587 46.0329 92.6621 43.258 92.8386 41.9119L87.6716 49.8236C86.9044 51.0017 86.065 52.4107 85.1703 53.5012C84.9733 53.7413 84.5881 53.7358 84.2713 53.7408C83.954 53.4246 82.3363 50.8797 81.9725 50.3205C80.1657 47.5728 78.3774 44.8146 76.6079 42.0463C76.687 47.5284 76.5321 53.0747 76.6909 58.5434L70.9208 58.5212L70.917 32.6439Z" fill="#383838"/>
<path d="M141.145 32.1553C146.042 31.873 150.251 33.8112 152.306 38.047L147.634 40.5405C146.194 38.2374 144.381 36.7634 141.22 37.2713C140.071 37.4558 139.386 38.119 138.792 39.0009C138.789 39.0763 138.787 39.152 138.786 39.2274C138.776 39.7677 138.761 40.325 139.066 40.8059C140.649 43.2997 148.164 43.6205 151.242 46.5968C152.628 47.9362 153.09 49.6367 153.043 51.4558C152.989 53.5159 152.416 55.2023 150.771 56.6491C148.705 58.4658 145.463 59.2073 142.674 59.135C137.602 58.7147 133.913 57.4198 131.948 52.6565C133.497 51.7451 135.149 50.9813 136.668 50.0179C137.218 51.0973 137.823 51.9625 138.995 52.8761C141.211 54.6608 147.848 54.6639 147.532 50.9677C147.351 48.8496 141.048 47.5405 139.239 46.9253C138.203 46.5785 137.215 46.1183 136.297 45.5546C132.661 43.3007 132.166 38.993 134.469 35.6116C135.963 33.419 138.512 32.6429 141.145 32.1553Z" fill="#383838"/>
<path d="M163.48 32.6491C165.471 32.4963 169.64 32.5935 171.756 32.6049C175.711 32.6262 180.112 32.5044 184.029 32.6374C184.05 34.3445 184.063 36.0517 184.066 37.7589C181.761 37.6371 178.765 37.7023 176.393 37.7001C176.527 42.0319 176.429 46.8641 176.426 51.2307L176.438 58.5574C174.596 58.5288 172.714 58.54 170.868 58.5328C170.941 51.655 170.909 44.5791 170.857 37.7001L163.408 37.72C163.41 36.8422 163.346 33.2811 163.48 32.6491Z" fill="#383838"/>
<path d="M113.308 32.6469C115.004 32.5535 117.115 32.6123 118.843 32.6206L118.864 58.5583C117.005 58.5387 115.147 58.5354 113.288 58.5483C113.459 50.0979 113.306 41.1356 113.308 32.6469Z" fill="#383838"/>
<path d="M41.8939 32.6112C44.168 32.5885 46.4424 32.5954 48.7166 32.6319C49.8636 35.9424 51.2531 39.4145 52.5044 42.7124L58.5452 58.5291C56.6357 58.5508 54.6909 58.53 52.7783 58.5267C52.3708 57.0806 51.1585 54.1789 50.5902 52.6883L46.2513 41.2804C45.9157 40.4412 45.5866 39.6002 45.2641 38.7568C44.8905 40.2372 43.5627 43.5601 42.9895 45.1484C41.3965 49.6248 39.7652 54.0894 38.0956 58.5417C36.0637 58.5446 34.0319 58.5343 32 58.5112C32.8672 56.5505 33.6963 54.1157 34.4645 52.0832C36.1927 47.4083 37.9594 42.7455 39.7644 38.0957C40.3412 36.6231 41.1444 33.8747 41.8939 32.6112Z" fill="#383838"/>
<path d="M44.4279 16.0524C48.0039 15.615 51.2794 17.9666 51.7247 21.2912C52.1699 24.6158 49.6144 27.6411 46.0319 28.0306C42.4854 28.4163 39.2686 26.0721 38.8277 22.7809C38.387 19.49 40.8878 16.4853 44.4279 16.0524Z" fill="#09AEDD"/>
<path d="M202.192 32.6194C204.444 32.5986 206.695 32.602 208.947 32.629C212.112 41.2399 215.531 49.9282 218.784 58.5175C217.084 58.5428 214.7 58.6091 213.049 58.487C210.861 52.6786 208.531 46.8103 206.406 40.9998L205.599 38.801L198.419 58.533C196.42 58.559 194.335 58.5349 192.33 58.5356C193.176 56.1402 201.891 32.8566 202.192 32.6194Z" fill="#383838"/>
<path d="M204.886 16.0383C208.432 15.6978 211.609 18.0788 212 21.3696C212.391 24.6605 209.85 27.6281 206.31 28.0147C202.734 28.4049 199.501 26.0162 199.105 22.6925C198.71 19.3688 201.305 16.382 204.886 16.0383Z" fill="#E48AB1"/>
<path d="M117.878 69.4263C119.871 69.3025 120.186 69.2319 121.384 70.8312C123.333 73.4343 125.222 76.078 127.103 78.7234C126.93 75.9355 127.002 72.2687 126.969 69.4284L129.817 69.3972L129.798 83.6149C129.293 83.7122 128.692 83.7194 128.182 83.653C126.996 83.4987 121.808 75.7609 120.744 74.3666L120.765 83.6691L117.905 83.6475C117.945 78.9068 117.936 74.1666 117.878 69.4263Z" fill="#454545"/>
<path d="M168.118 69.0246C171.432 68.8648 173.133 69.5784 174.764 72.2521C174.035 72.57 173.153 73.1666 172.468 73.5982C171.392 71.9042 170.035 71.0193 167.677 71.8902C167.129 72.0919 166.981 72.4884 166.826 72.9844C167.605 75.7646 171.998 74.5385 174.981 78.2336C175.154 82.2941 174.239 83.4478 169.778 84.0173C166.619 83.9184 164.911 82.9342 163.387 80.3738C164.073 79.9303 164.962 79.4682 165.693 79.0644C166.452 80.0964 166.96 80.9416 168.362 81.2257C170.042 81.566 171.868 81.4903 172.376 79.7468C171.928 77.7783 168.234 77.4659 166.505 76.5907C165.549 76.107 165.288 75.8889 164.496 75.2091C163.679 71.7748 164.475 70.0604 168.118 69.0246Z" fill="#454545"/>
<path d="M151.108 69.0276C151.633 68.9963 152.16 68.9916 152.686 69.0136C155.917 69.1705 157.26 70.3416 159.257 72.4162L156.71 73.8371C155.438 72.0813 154.561 71.8467 152.482 71.3009C151.768 71.4404 150.501 71.6949 149.876 71.9841C148.573 72.595 147.596 73.6744 147.17 74.9711C146.739 76.3421 146.914 77.8168 147.658 79.067C149.2 81.6316 152.583 82.0806 155.147 80.6503L156.785 79.1076C157.825 79.6284 158.398 79.7743 158.811 80.7323C158.588 82.0332 155.515 83.4614 154.252 83.7776C146.981 85.599 141.762 78.04 145.419 72.3506C146.749 70.2799 148.731 69.537 151.108 69.0276Z" fill="#454545"/>
<path d="M81.9053 69.0287C82.4319 68.997 82.9603 68.9915 83.4878 69.0126C86.7276 69.1644 88.0662 70.344 90.0748 72.4156L87.5237 73.8387C86.2488 72.0757 85.3685 71.8423 83.2844 71.2986C80.8129 71.7945 78.797 72.4372 77.985 74.9722C77.5522 76.3416 77.7242 77.8145 78.4629 79.0656C80.0114 81.6555 83.3809 82.0597 85.9675 80.6506L87.6029 79.1049C88.5533 79.5902 89.2997 79.824 89.6652 80.7034C89.261 82.1071 86.424 83.4612 84.9607 83.816C82.9644 84.3182 80.8338 84.043 79.0606 83.0537C77.1594 81.9971 75.7939 80.276 75.27 78.2766C74.0789 73.5258 76.925 70.1131 81.9053 69.0287Z" fill="#454545"/>
<path d="M95.0967 69.4061C96.0206 69.3922 97.057 69.4205 97.9901 69.4285L98.0115 81.2631L104.074 81.2589L104.081 83.7009C101.188 83.6256 98.0566 83.673 95.1458 83.6658C95.2382 79.1192 95.2533 73.9346 95.0967 69.4061Z" fill="#454545"/>
<path d="M136.113 69.4176C137 69.3914 138.028 69.4223 138.927 69.4286C138.951 74.0877 138.815 78.9362 139.014 83.5656C138.275 83.7284 136.933 83.654 136.128 83.6392L136.113 69.4176Z" fill="#454545"/>
<path d="M109.094 69.3555L111.71 69.3745C111.674 73.9401 111.578 79.0182 111.763 83.5504C111.166 83.7326 109.799 83.6887 109.108 83.6942L109.094 69.3555Z" fill="#454545"/>
</svg>
