<svg width="250" height="100" viewBox="0 0 250 100" fill="none" xmlns="http://www.w3.org/2000/svg">
<path d="M70.4863 35.892C72.233 35.7929 74.4455 35.8564 76.2281 35.8659C77.1343 36.9664 78.6888 39.4996 79.5177 40.7829C81.0436 43.1445 82.7469 45.6227 84.1844 48.0132C86.7181 44.4225 89.7885 39.5795 92.0806 35.8686C93.5894 35.7955 96.3054 35.8392 97.8054 35.8941C98.0647 44.3454 97.6371 53.2693 97.8514 61.7948L92.3296 61.7793L92.337 50.7368C92.3281 49.281 92.2314 46.506 92.408 45.16L87.2409 53.0717C86.4737 54.2497 85.6343 55.6588 84.7397 56.7492C84.5426 56.9893 84.1574 56.9838 83.8406 56.9889C83.5233 56.6726 81.9056 54.1278 81.5418 53.5686C79.735 50.8208 77.9468 48.0626 76.1772 45.2943C76.2564 50.7764 76.1014 56.3227 76.2602 61.7915L70.4902 61.7693L70.4863 35.892Z" fill="#383838"/>
<path d="M140.714 35.4034C145.611 35.121 149.82 37.0592 151.875 41.295L147.203 43.7886C145.764 41.4855 143.951 40.0115 140.789 40.5194C139.64 40.7038 138.955 41.3671 138.361 42.249C138.359 42.3244 138.357 42.4 138.355 42.4754C138.346 43.0158 138.331 43.5731 138.636 44.054C140.218 46.5478 147.733 46.8685 150.812 49.8449C152.197 51.1843 152.66 52.8848 152.612 54.7038C152.558 56.764 151.985 58.4504 150.34 59.8972C148.274 61.7139 145.032 62.4554 142.243 62.3831C137.171 61.9628 133.483 60.6678 131.518 55.9046C133.066 54.9931 134.719 54.2294 136.237 53.2659C136.787 54.3454 137.392 55.2105 138.564 56.1241C140.781 57.9089 147.417 57.912 147.101 54.2158C146.92 52.0976 140.618 50.7886 138.809 50.1733C137.773 49.8265 136.785 49.3664 135.866 48.8027C132.231 46.5487 131.735 42.2411 134.038 38.8597C135.532 36.6671 138.081 35.891 140.714 35.4034Z" fill="#383838"/>
<path d="M41.4632 35.8592C43.7374 35.8365 46.0118 35.8435 48.2859 35.88C49.4329 39.1905 50.8224 42.6626 52.0737 45.9604L58.1146 61.7771C56.205 61.7988 54.2602 61.7781 52.3476 61.7747C51.9401 60.3287 50.7279 57.427 50.1595 55.9363L45.8206 44.5284C45.4851 43.6893 45.1559 42.8482 44.8335 42.0048C44.4599 43.4852 43.132 46.8081 42.5588 48.3964C40.9658 52.8728 39.3345 57.3375 37.6649 61.7898C35.6331 61.7926 33.6012 61.7824 31.5693 61.7592C32.4365 59.7986 33.2656 57.3638 34.0339 55.3313C35.762 50.6564 37.5287 45.9936 39.3337 41.3437C39.9106 39.8712 40.7137 37.1227 41.4632 35.8592Z" fill="#383838"/>
<path d="M201.761 35.8675C204.013 35.8467 206.265 35.85 208.517 35.877C211.682 44.488 215.1 53.1763 218.353 61.7655C216.654 61.7908 214.269 61.8572 212.618 61.735C210.43 55.9266 208.1 50.0584 205.975 44.2479L205.168 42.0491L197.989 61.7811C195.989 61.8071 193.905 61.783 191.899 61.7837C192.745 59.3882 201.46 36.1047 201.761 35.8675Z" fill="#383838"/>
<path d="M163.049 35.8971C165.041 35.7444 169.209 35.8415 171.325 35.853C175.281 35.8742 179.681 35.7525 183.598 35.8854C183.62 37.5926 183.632 39.2997 183.635 41.0069C181.33 40.8852 178.334 40.9503 175.963 40.9482C176.097 45.2799 175.998 50.1122 175.996 54.4787L176.007 61.8055C174.165 61.7768 172.284 61.788 170.438 61.7809C170.511 54.9031 170.478 47.8272 170.427 40.9482L162.978 40.968C162.979 40.0902 162.915 36.5291 163.049 35.8971Z" fill="#383838"/>
<path d="M112.877 35.8949C114.573 35.8016 116.685 35.8603 118.413 35.8687L118.433 61.8064C116.575 61.7868 114.716 61.7835 112.857 61.7963C113.029 53.346 112.876 44.3837 112.877 35.8949Z" fill="#383838"/>
<path d="M43.9972 19.3004C47.5733 18.863 50.8487 21.2146 51.294 24.5393C51.7393 27.8638 49.1838 30.8891 45.6013 31.2786C42.0548 31.6643 38.8379 29.3202 38.397 26.029C37.9564 22.7381 40.4571 19.7333 43.9972 19.3004Z" fill="#09AEDD"/>
<path d="M204.455 19.2863C208.001 18.9459 211.178 21.3268 211.569 24.6177C211.961 27.9086 209.42 30.8761 205.879 31.2628C202.304 31.653 199.07 29.2642 198.675 25.9406C198.279 22.6168 200.874 19.6301 204.455 19.2863Z" fill="#E48AB1"/>
<path d="M122.898 69.7459C124.023 69.676 124.202 69.6362 124.878 70.539C125.978 72.0085 127.044 73.5008 128.106 74.9942C128.009 73.4204 128.049 71.3505 128.03 69.7471L129.638 69.7295L129.627 77.7555C129.342 77.8104 129.003 77.8144 128.715 77.777C128.045 77.6899 125.117 73.3218 124.516 72.5347L124.528 77.786L122.914 77.7739C122.936 75.0977 122.931 72.4218 122.898 69.7459Z" fill="#454545"/>
<path d="M151.259 69.5193C153.129 69.4291 154.09 69.8319 155.01 71.3412C154.599 71.5207 154.101 71.8575 153.715 72.1011C153.107 71.1448 152.341 70.6453 151.01 71.1369C150.701 71.2508 150.617 71.4746 150.53 71.7546C150.969 73.324 153.449 72.6319 155.133 74.7178C155.23 77.01 154.714 77.6613 152.196 77.9828C150.413 77.9269 149.448 77.3713 148.588 75.926C148.975 75.6756 149.477 75.4147 149.89 75.1868C150.318 75.7694 150.605 76.2465 151.396 76.4069C152.345 76.599 153.375 76.5563 153.662 75.572C153.409 74.4608 151.324 74.2844 150.348 73.7904C149.808 73.5174 149.661 73.3942 149.214 73.0104C148.753 71.0718 149.202 70.104 151.259 69.5193Z" fill="#454545"/>
<path d="M141.657 69.5209C141.953 69.5033 142.25 69.5006 142.547 69.5131C144.371 69.6016 145.129 70.2627 146.257 71.4338L144.819 72.236C144.101 71.2448 143.606 71.1123 142.432 70.8042C142.029 70.883 141.314 71.0267 140.961 71.1899C140.226 71.5348 139.674 72.1441 139.434 72.8761C139.19 73.65 139.289 74.4825 139.709 75.1882C140.58 76.636 142.489 76.8894 143.937 76.082L144.861 75.2111C145.448 75.5052 145.772 75.5875 146.005 76.1283C145.879 76.8627 144.144 77.6689 143.431 77.8474C139.327 78.8756 136.381 74.6085 138.445 71.3968C139.196 70.2279 140.314 69.8085 141.657 69.5209Z" fill="#454545"/>
<path d="M102.591 69.5216C102.889 69.5037 103.187 69.5006 103.485 69.5125C105.314 69.5982 106.069 70.264 107.203 71.4335L105.763 72.2368C105.043 71.2416 104.546 71.1099 103.37 70.8029C101.975 71.0829 100.837 71.4457 100.378 72.8767C100.134 73.6497 100.231 74.4812 100.648 75.1874C101.522 76.6495 103.424 76.8776 104.885 76.0822L105.808 75.2096C106.344 75.4836 106.766 75.6156 106.972 76.112C106.744 76.9044 105.142 77.6688 104.316 77.8691C103.189 78.1526 101.987 77.9972 100.986 77.4387C99.9123 76.8423 99.1415 75.8707 98.8458 74.7421C98.1734 72.0602 99.78 70.1337 102.591 69.5216Z" fill="#454545"/>
<path d="M110.038 69.7346C110.56 69.7267 111.145 69.7427 111.671 69.7472L111.684 76.4279L115.106 76.4255L115.11 77.804C113.477 77.7615 111.709 77.7883 110.066 77.7842C110.118 75.2176 110.126 72.2909 110.038 69.7346Z" fill="#454545"/>
<path d="M133.192 69.7412C133.693 69.7264 134.273 69.7438 134.781 69.7474C134.794 72.3775 134.717 75.1145 134.83 77.7279C134.413 77.8197 133.655 77.7777 133.201 77.7694L133.192 69.7412Z" fill="#454545"/>
<path d="M117.939 69.7061L119.416 69.7168C119.396 72.2941 119.342 75.1607 119.446 77.7192C119.109 77.822 118.338 77.7972 117.948 77.8003L117.939 69.7061Z" fill="#454545"/>
</svg>
